<svg xmlns="http://www.w3.org/2000/svg" viewBox="0 0 1641 1006" width="1641" height="1006">
<style>
  svg { background: #ffffff; }
  .node-text { font-family: sans-serif; font-size: 14px; }
  .edge-label { font-family: sans-serif; font-size: 11.9px; }
</style>
<defs>
  <marker id="arrowhead" viewBox="0 0 10 10" markerWidth="8" markerHeight="8" refX="8.5" refY="5" orient="auto" markerUnits="userSpaceOnUse">
    <path d="M 0 0 L 10 5 L 0 10 z" fill="#333333"/>
  </marker>
  <marker id="arrowhead-thick" viewBox="0 0 10 10" markerWidth="8" markerHeight="8" refX="8.5" refY="5" orient="auto" markerUnits="userSpaceOnUse">
    <path d="M 0 0 L 10 5 L 0 10 z" fill="#333333"/>
  </marker>
</defs>
<g transform="translate(8, 8)">
<rect x="126.36638383282104" y="26" width="393.60655212402344" height="298" rx="5" fill="#ebebff33" stroke="#9370DB" stroke-width="1" stroke-dasharray="5,5"/>
<text x="136.36638383282104" y="44" font-family="sans-serif" font-size="14" font-weight="bold" fill="#333333"><tspan x="136.36638383282104" dy="0">Organization: Acme Holdings</tspan><tspan x="136.36638383282104" dy="1.2em">(id=org-123, plan=enterprise)</tspan></text>
<rect x="1052.7010164926328" y="190" width="187.546142578125" height="134" rx="5" fill="#ebebff33" stroke="#9370DB" stroke-width="1" stroke-dasharray="5,5"/>
<text x="1062.7010164926328" y="208" font-family="sans-serif" font-size="14" font-weight="bold" fill="#333333"><tspan x="1062.7010164926328" dy="0">Organization: Smallco</tspan><tspan x="1062.7010164926328" dy="1.2em">(id=org-456, plan=free)</tspan></text>
<rect x="266.6833385666205" y="370" width="207.7181396484375" height="210" rx="5" fill="#ebebff33" stroke="#9370DB" stroke-width="1" stroke-dasharray="5,5"/>
<text x="276.6833385666205" y="388" font-family="sans-serif" font-size="14" font-weight="bold" fill="#333333">Legal Entity: Acme Holdings Inc.</text>
<rect x="8" y="370" width="142.0578842163086" height="210" rx="5" fill="#ebebff33" stroke="#9370DB" stroke-width="1" stroke-dasharray="5,5"/>
<text x="18" y="388" font-family="sans-serif" font-size="14" font-weight="bold" fill="#333333">Legal Entity: Acme EU GmbH</text>
<rect x="918.5777158258755" y="370" width="142.0578842163086" height="210" rx="5" fill="#ebebff33" stroke="#9370DB" stroke-width="1" stroke-dasharray="5,5"/>
<text x="928.5777158258755" y="388" font-family="sans-serif" font-size="14" font-weight="bold" fill="#333333">Legal Entity: Smallco LLC</text>
<rect x="0" y="0" width="1248.2471590707578" height="588" rx="5" fill="#ebebff33" stroke="#9370DB" stroke-width="1" stroke-dasharray="5,5"/>
<text x="10" y="18" font-family="sans-serif" font-size="14" font-weight="bold" fill="#333333">Platform</text>
<rect x="546.9138055105627" y="626" width="599.1795501708983" height="246" rx="5" fill="#d4eaff" stroke="#336" stroke-width="1" stroke-dasharray="5,5"/>
<text x="556.9138055105627" y="644" font-family="sans-serif" font-size="14" font-weight="bold" fill="#333333">Ory Org: Acme US (ory-org-aaa)</text>
<rect x="34.191283844471855" y="626" width="383.8112487792969" height="246" rx="5" fill="#d4f5d4" stroke="#363" stroke-width="1" stroke-dasharray="5,5"/>
<text x="44.191283844471855" y="644" font-family="sans-serif" font-size="14" font-weight="bold" fill="#333333">Ory Org: Acme EU (ory-org-bbb)</text>
<rect x="1200.0933556814612" y="626" width="409.41526794433594" height="237" rx="5" fill="#f5e6ff" stroke="#636" stroke-width="1" stroke-dasharray="5,5"/>
<text x="1210.0933556814612" y="644" font-family="sans-serif" font-size="14" font-weight="bold" fill="#333333">Ory Org: Smallco (ory-org-ccc)</text>
<rect x="26.191283844471855" y="600" width="1591.3173397813252" height="280" rx="5" fill="#ebebff33" stroke="#9370DB" stroke-width="1" stroke-dasharray="5,5"/>
<text x="36.191283844471855" y="618" font-family="sans-serif" font-size="14" font-weight="bold" fill="#333333">Ory Network</text>
<rect x="45.067047023101736" y="918" width="592.8406034157432" height="64" rx="5" fill="#ebebff33" stroke="#9370DB" stroke-width="1" stroke-dasharray="5,5"/>
<text x="55.067047023101736" y="936" font-family="sans-serif" font-size="14" font-weight="bold" fill="#333333">External Identity Providers</text>
<path d="M 379.67115673353044 152 L 387.3623754019698 156.90196078431373 C 395.05359407040913 161.80392156862743 410.4360314072878 171.6078431372549 435.4772084673229 181.41176470588235 C 460.5183855273579 191.2156862745098 495.2183023105493 201.01960784313724 530.9914123963136 210.82352941176472 C 566.7645224820781 220.62745098039215 603.6108258704153 230.43137254901958 632.9447761407422 240.23529411764707 C 662.2787264110689 250.0392156862745 684.1003235633852 259.84313725490193 695.5588978877316 269.6470588235294 C 707.0174722120779 279.45098039215685 708.1130237084544 289.2549019607843 708.6607994566426 299.05882352941177 C 709.2085752048309 308.8627450980392 709.2085752048309 318.6666666666667 709.2085752048309 328.47058823529414 C 709.2085752048309 338.2745098039216 709.2085752048309 348.078431372549 709.2085752048309 357.8823529411764 C 709.2085752048309 367.6862745098039 709.2085752048309 377.4901960784314 709.2085752048309 387.2941176470588 C 709.2085752048309 397.09803921568624 709.2085752048309 406.90196078431364 709.2085752048309 416.70588235294116 C 709.2085752048309 426.5098039215686 709.2085752048309 436.3137254901961 709.2085752048309 446.1176470588235 C 709.2085752048309 455.921568627451 709.2085752048309 465.72549019607845 709.2085752048309 475.5294117647059 C 709.2085752048309 485.3333333333333 709.2085752048309 495.13725490196083 709.2085752048309 504.9411764705883 C 709.2085752048309 514.7450980392156 709.2085752048309 524.5490196078431 709.2085752048309 534.3529411764706 C 709.2085752048309 544.156862745098 709.2085752048309 553.9607843137254 709.2085752048309 563.7647058823528 C 709.2085752048309 573.5686274509804 709.2085752048309 583.3725490196078 709.2085752048309 593.1764705882354 C 709.2085752048309 602.9803921568628 709.2085752048309 612.7843137254902 709.2085752048309 622.5882352941176 C 709.2085752048309 632.3921568627451 709.2085752048309 642.1960784313725 709.2085752048309 647.0980392156863 L 709.2085752048309 652" fill="none" stroke="#333333" stroke-width="4" stroke-linecap="round" stroke-linejoin="round" marker-end="url(#arrowhead)"/>
<rect x="540.1876741762467" y="215.52941176470588" width="90" height="20" rx="3" fill="rgba(232,232,232,0.8)"/>
<text class="edge-label" x="585.1876741762467" y="225.52941176470588" text-anchor="middle" dominant-baseline="central" fill="#333333">ory_org_id</text>
<path d="M 221.67217759502807 316 L 220.44100774989033 320.6666666666667 C 219.2098379047525 325.3333333333333 216.74749821447696 334.6666666666667 213.22987008551186 344 C 209.7122419565467 353.3333333333333 205.13932538889205 362.6666666666667 201.62169725992692 372 C 198.1040691309618 381.3333333333333 195.64172944068625 390.6666666666667 194.41055959554845 400 C 193.17938975041068 409.3333333333333 193.17938975041068 418.6666666666667 193.17938975041068 428 C 193.17938975041068 437.3333333333333 193.17938975041068 446.6666666666667 193.17938975041068 456 C 193.17938975041068 465.3333333333333 193.17938975041068 474.6666666666667 193.17938975041068 484 C 193.17938975041068 493.3333333333333 193.17938975041068 502.6666666666667 193.17938975041068 512 C 193.17938975041068 521.3333333333334 193.17938975041068 530.6666666666666 193.17938975041068 540 C 193.17938975041068 549.3333333333334 193.17938975041068 558.6666666666666 193.17938975041068 568 C 193.17938975041068 577.3333333333334 193.17938975041068 586.6666666666666 193.17938975041068 596 C 193.17938975041068 605.3333333333334 193.17938975041068 614.6666666666666 193.17938975041068 624 C 193.17938975041068 633.3333333333334 193.17938975041068 642.6666666666666 193.17938975041068 647.3333333333334 L 193.17938975041068 652" fill="none" stroke="#333333" stroke-width="4" stroke-linecap="round" stroke-linejoin="round" marker-end="url(#arrowhead)"/>
<rect x="162.42578367271938" y="348" width="90" height="20" rx="3" fill="rgba(232,232,232,0.8)"/>
<text class="edge-label" x="207.42578367271938" y="358" text-anchor="middle" dominant-baseline="central" fill="#333333">ory_org_id</text>
<path d="M 435.4754536570398 316 L 447.3034280449073 320.6666666666667 C 459.13140243277485 325.3333333333333 482.7873512085098 334.6666666666667 516.5815637452741 344 C 550.3757762820386 353.3333333333333 594.3082525798322 362.6666666666667 628.1024651165966 372 C 661.8966776533608 381.3333333333333 685.552626429096 390.6666666666667 697.3806008169635 400 C 709.2085752048309 409.3333333333333 709.2085752048309 418.6666666666667 709.2085752048309 428 C 709.2085752048309 437.3333333333333 709.2085752048309 446.6666666666667 709.2085752048309 456 C 709.2085752048309 465.3333333333333 709.2085752048309 474.6666666666667 709.2085752048309 484 C 709.2085752048309 493.3333333333333 709.2085752048309 502.6666666666667 709.2085752048309 512 C 709.2085752048309 521.3333333333334 709.2085752048309 530.6666666666666 709.2085752048309 540 C 709.2085752048309 549.3333333333334 709.2085752048309 558.6666666666666 709.2085752048309 568 C 709.2085752048309 577.3333333333334 709.2085752048309 586.6666666666666 709.2085752048309 596 C 709.2085752048309 605.3333333333334 709.2085752048309 614.6666666666666 709.2085752048309 624 C 709.2085752048309 633.3333333333334 709.2085752048309 642.6666666666666 709.2085752048309 647.3333333333334 L 709.2085752048309 652" fill="none" stroke="#333333" stroke-width="2" stroke-linecap="round" stroke-linejoin="round" stroke-dasharray="3,3" marker-end="url(#arrowhead)"/>
<rect x="487.34201443093536" y="348" width="170" height="20" rx="3" fill="rgba(232,232,232,0.8)"/>
<text class="edge-label" x="572.3420144309354" y="358" text-anchor="middle" dominant-baseline="central" fill="#333333">inherits from parent</text>
<path d="M 1146.4740877816953 316 L 1153.1007042148742 320.6666666666667 C 1159.7273206480531 325.3333333333333 1172.980553514411 334.6666666666667 1191.9137433234937 344 C 1210.8469331325764 353.3333333333333 1235.460079884384 362.6666666666667 1254.3932696934667 372 C 1273.3264595025494 381.3333333333333 1286.5796923689072 390.6666666666667 1293.2063088020861 400 C 1299.832925235265 409.3333333333333 1299.832925235265 418.6666666666667 1299.832925235265 428 C 1299.832925235265 437.3333333333333 1299.832925235265 446.6666666666667 1299.832925235265 456 C 1299.832925235265 465.3333333333333 1299.832925235265 474.6666666666667 1299.832925235265 484 C 1299.832925235265 493.3333333333333 1299.832925235265 502.6666666666667 1299.832925235265 512 C 1299.832925235265 521.3333333333334 1299.832925235265 530.6666666666666 1299.832925235265 540 C 1299.832925235265 549.3333333333334 1299.832925235265 558.6666666666666 1299.832925235265 568 C 1299.832925235265 577.3333333333334 1299.832925235265 586.6666666666666 1299.832925235265 596 C 1299.832925235265 605.3333333333334 1299.832925235265 614.6666666666666 1299.832925235265 624 C 1299.832925235265 633.3333333333334 1299.832925235265 642.6666666666666 1299.832925235265 647.3333333333334 L 1299.832925235265 652" fill="none" stroke="#333333" stroke-width="4" stroke-linecap="round" stroke-linejoin="round" marker-end="url(#arrowhead)"/>
<rect x="1178.1535065084804" y="348" width="90" height="20" rx="3" fill="rgba(232,232,232,0.8)"/>
<text class="edge-label" x="1223.1535065084804" y="358" text-anchor="middle" dominant-baseline="central" fill="#333333">ory_org_id</text>
<path d="M 370.5424083908392 572 L 412.3530462691098 574.2222222222223 C 454.16368414738037 576.4444444444445 537.7849599039215 580.8888888888889 594.2293210395868 585.3333333333334 C 650.6736821752521 589.7777777777778 679.9411286900415 594.2222222222222 694.5748519474363 598.6666666666666 C 709.2085752048309 603.1111111111111 709.2085752048309 607.5555555555555 709.2085752048309 612 C 709.2085752048309 616.4444444444445 709.2085752048309 620.8888888888889 709.2085752048309 625.3333333333334 C 709.2085752048309 629.7777777777778 709.2085752048309 634.2222222222222 709.2085752048309 638.6666666666666 C 709.2085752048309 643.1111111111111 709.2085752048309 647.5555555555555 709.2085752048309 649.7777777777777 L 709.2085752048309 652" fill="none" stroke="#333333" stroke-width="2" stroke-linecap="round" stroke-linejoin="round" marker-end="url(#arrowhead)"/>
<rect x="422.97432202565096" y="568.6666666666667" width="146" height="20" rx="3" fill="rgba(232,232,232,0.8)"/>
<text class="edge-label" x="495.97432202565096" y="578.6666666666667" text-anchor="middle" dominant-baseline="central" fill="#333333">configures domain</text>
<path d="M 79.0289421081543 572 L 93.121589965223 574.2222222222223 C 107.2142378222917 576.4444444444445 135.3995335364291 580.8888888888889 154.42460814347183 585.3333333333334 C 173.44968275051454 589.7777777777778 183.31453625046262 594.2222222222222 188.24696300043664 598.6666666666666 C 193.17938975041068 603.1111111111111 193.17938975041068 607.5555555555555 193.17938975041068 612 C 193.17938975041068 616.4444444444445 193.17938975041068 620.8888888888889 193.17938975041068 625.3333333333334 C 193.17938975041068 629.7777777777778 193.17938975041068 634.2222222222222 193.17938975041068 638.6666666666666 C 193.17938975041068 643.1111111111111 193.17938975041068 647.5555555555555 193.17938975041068 649.7777777777777 L 193.17938975041068 652" fill="none" stroke="#333333" stroke-width="2" stroke-linecap="round" stroke-linejoin="round" marker-end="url(#arrowhead)"/>
<rect x="48.30688567936039" y="568.6666666666667" width="146" height="20" rx="3" fill="rgba(232,232,232,0.8)"/>
<text class="edge-label" x="121.30688567936039" y="578.6666666666667" text-anchor="middle" dominant-baseline="central" fill="#333333">configures domain</text>
<path d="M 989.6066579340298 572 L 1027.9061971070219 574.2222222222223 C 1066.205736280014 576.4444444444445 1142.8048146259978 580.8888888888889 1194.509192509537 585.3333333333334 C 1246.2135703930762 589.7777777777778 1273.0232478141706 594.2222222222222 1286.4280865247179 598.6666666666666 C 1299.832925235265 603.1111111111111 1299.832925235265 607.5555555555555 1299.832925235265 612 C 1299.832925235265 616.4444444444445 1299.832925235265 620.8888888888889 1299.832925235265 625.3333333333334 C 1299.832925235265 629.7777777777778 1299.832925235265 634.2222222222222 1299.832925235265 638.6666666666666 C 1299.832925235265 643.1111111111111 1299.832925235265 647.5555555555555 1299.832925235265 649.7777777777777 L 1299.832925235265 652" fill="none" stroke="#333333" stroke-width="2" stroke-linecap="round" stroke-linejoin="round" marker-end="url(#arrowhead)"/>
<rect x="1031.505275453006" y="568.6666666666667" width="146" height="20" rx="3" fill="rgba(232,232,232,0.8)"/>
<text class="edge-label" x="1104.505275453006" y="578.6666666666667" text-anchor="middle" dominant-baseline="central" fill="#333333">configures domain</text>
<path d="M 619.4314294119299 864 L 616.1091422102862 866.2222222222222 C 612.7868550086424 868.4444444444445 606.1422806053548 872.888888888889 601.6571928831357 877.3333333333335 C 597.1721051609167 881.7777777777778 594.8465041197661 886.2222222222222 593.6837035991907 890.6666666666666 C 592.5209030786154 895.111111111111 592.5209030786154 899.5555555555555 592.5209030786154 904 C 592.5209030786154 908.4444444444445 592.5209030786154 912.888888888889 592.5209030786154 917.3333333333335 C 592.5209030786154 921.7777777777778 592.5209030786154 926.2222222222222 592.5209030786154 930.6666666666666 C 592.5209030786154 935.111111111111 592.5209030786154 939.5555555555555 592.5209030786154 941.7777777777778 L 592.5209030786154 944" fill="none" stroke="#333333" stroke-width="2" stroke-linecap="round" stroke-linejoin="round" marker-end="url(#arrowhead)"/>
<rect x="536.4645678069986" y="860.6666666666667" width="146" height="20" rx="3" fill="rgba(232,232,232,0.8)"/>
<text class="edge-label" x="609.4645678069986" y="870.6666666666667" text-anchor="middle" dominant-baseline="central" fill="#333333">SAML AuthnRequest</text>
<path d="M 115.88465847826092 864 L 113.04011952478531 866.2222222222222 C 110.19558057130972 868.4444444444445 104.5065026643585 872.888888888889 100.66637507716645 877.3333333333335 C 96.82624748997439 881.7777777777778 94.83507022254149 886.2222222222222 93.83948158882504 890.6666666666666 C 92.84389295510857 895.111111111111 92.84389295510857 899.5555555555555 92.84389295510857 904 C 92.84389295510857 908.4444444444445 92.84389295510857 912.888888888889 92.84389295510857 917.3333333333335 C 92.84389295510857 921.7777777777778 92.84389295510857 926.2222222222222 92.84389295510857 930.6666666666666 C 92.84389295510857 935.111111111111 92.84389295510857 939.5555555555555 92.84389295510857 941.7777777777778 L 92.84389295510857 944" fill="none" stroke="#333333" stroke-width="2" stroke-linecap="round" stroke-linejoin="round" marker-end="url(#arrowhead)"/>
<rect x="42.351041617834085" y="860.6666666666667" width="130" height="20" rx="3" fill="rgba(232,232,232,0.8)"/>
<text class="edge-label" x="107.35104161783408" y="870.6666666666667" text-anchor="middle" dominant-baseline="central" fill="#333333">OIDC /authorize</text>
<path d="M 379.67115673353044 152 L 377.0613854724015 156.5185185185185 C 374.4516142112725 161.03703703703704 369.2320716890146 170.07407407407408 364.3059997106756 179.11111111111111 C 359.3799277323366 188.14814814814815 354.7473262979167 197.1851851851852 351.39119505748596 206.2222222222222 C 348.0350638170553 215.25925925925927 345.955402770614 224.2962962962963 344.4217450868994 233.33333333333334 C 342.8880874031849 242.37037037037035 341.9004330821972 251.4074074074074 341.40660592170343 260.4444444444444 C 340.91277876120955 269.48148148148147 340.91277876120955 278.51851851851853 341.40660592170343 287.5555555555555 C 341.9004330821972 296.59259259259255 342.8880874031849 305.6296296296296 344.3695688846664 314.6666666666667 C 345.85105036614794 323.7037037037037 347.8263590081231 332.7407407407407 350.29549481059234 341.7777777777778 C 352.7646306130614 350.8148148148148 355.72759357602445 359.8518518518519 359.1843836994812 368.8888888888889 C 362.641173822938 377.9259259259259 366.59179110688865 386.962962962963 368.56709974886394 391.48148148148147 L 370.5424083908392 396" fill="none" stroke="#333333" stroke-width="2" stroke-linecap="round" stroke-linejoin="round" stroke-dasharray="3,3" marker-end="url(#arrowhead)"/>
<rect x="326.8418429501436" y="155.55555555555554" width="90" height="20" rx="3" fill="rgba(232,232,232,0.8)"/>
<text class="edge-label" x="371.8418429501436" y="165.55555555555554" text-anchor="middle" dominant-baseline="central" fill="#333333">REPRESENTS</text>
<path d="M 221.67217759502807 316 L 204.06190160899428 318.22222222222223 C 186.45162562296048 320.4444444444444 151.23107365089288 324.88888888888886 127.45720106974726 329.3333333333333 C 103.68332848860162 333.77777777777777 91.35613529837796 338.22222222222223 85.19253870326612 342.6666666666667 C 79.0289421081543 347.11111111111114 79.0289421081543 351.5555555555556 79.0289421081543 356 C 79.0289421081543 360.4444444444444 79.0289421081543 364.88888888888886 79.0289421081543 369.3333333333333 C 79.0289421081543 373.77777777777777 79.0289421081543 378.22222222222223 79.0289421081543 382.6666666666667 C 79.0289421081543 387.11111111111114 79.0289421081543 391.5555555555556 79.0289421081543 393.7777777777778 L 79.0289421081543 396" fill="none" stroke="#333333" stroke-width="2" stroke-linecap="round" stroke-linejoin="round" stroke-dasharray="3,3" marker-end="url(#arrowhead)"/>
<rect x="123.84134963692668" y="312.66666666666663" width="90" height="20" rx="3" fill="rgba(232,232,232,0.8)"/>
<text class="edge-label" x="168.84134963692668" y="322.66666666666663" text-anchor="middle" dominant-baseline="central" fill="#333333">REPRESENTS</text>
<path d="M 1146.4740877816953 316 L 1127.1077384177859 318.22222222222223 C 1107.7413890538767 320.4444444444444 1069.0086903260578 324.88888888888886 1042.8641186847801 329.3333333333333 C 1016.7195470435028 333.77777777777777 1003.1631024887662 338.22222222222223 996.384880211398 342.6666666666667 C 989.6066579340298 347.11111111111114 989.6066579340298 351.5555555555556 989.6066579340298 356 C 989.6066579340298 360.4444444444444 989.6066579340298 364.88888888888886 989.6066579340298 369.3333333333333 C 989.6066579340298 373.77777777777777 989.6066579340298 378.22222222222223 989.6066579340298 382.6666666666667 C 989.6066579340298 387.11111111111114 989.6066579340298 391.5555555555556 989.6066579340298 393.7777777777778 L 989.6066579340298 396" fill="none" stroke="#333333" stroke-width="2" stroke-linecap="round" stroke-linejoin="round" stroke-dasharray="3,3" marker-end="url(#arrowhead)"/>
<rect x="1043.3750396899673" y="312.66666666666663" width="90" height="20" rx="3" fill="rgba(232,232,232,0.8)"/>
<text class="edge-label" x="1088.3750396899673" y="322.66666666666663" text-anchor="middle" dominant-baseline="central" fill="#333333">REPRESENTS</text>
<path d="M 379.67115673353044 152 L 360.16510992630793 154.2222222222222 C 340.6590631190854 156.44444444444443 301.64696950464037 160.88888888888889 275.31380631489 165.33333333333331 C 248.98064312513955 169.77777777777774 235.32641036008383 174.2222222222222 228.499293977556 178.66666666666666 C 221.67217759502807 183.1111111111111 221.67217759502807 187.55555555555554 221.6721775950281 192 C 221.67217759502807 196.44444444444443 221.67217759502807 200.88888888888889 221.6721775950281 205.33333333333334 C 221.67217759502807 209.77777777777774 221.67217759502807 214.22222222222226 221.6721775950281 218.66666666666666 C 221.67217759502807 223.11111111111111 221.67217759502807 227.55555555555557 221.6721775950281 229.7777777777778 L 221.67217759502807 232" fill="none" stroke="#333333" stroke-width="2" stroke-linecap="round" stroke-linejoin="round" marker-end="url(#arrowhead)"/>
<rect x="268.15301631186287" y="148.66666666666666" width="106" height="20" rx="3" fill="rgba(232,232,232,0.8)"/>
<text class="edge-label" x="321.15301631186287" y="158.66666666666666" text-anchor="middle" dominant-baseline="central" fill="#333333">HAS_CHILD_OU</text>
<path d="M 379.67115673353044 152 L 386.5605761068032 154.2222222222222 C 393.449995480076 156.44444444444443 407.22883422662153 160.88888888888889 416.5295503805398 165.33333333333331 C 425.83026653445796 169.77777777777774 430.65286009574885 174.2222222222222 433.0641568763943 178.66666666666666 C 435.47545365703974 183.1111111111111 435.47545365703974 187.55555555555554 435.47545365703985 192 C 435.47545365703974 196.44444444444443 435.47545365703974 200.88888888888889 435.47545365703985 205.33333333333334 C 435.47545365703974 209.77777777777774 435.47545365703974 214.22222222222226 435.47545365703985 218.66666666666666 C 435.47545365703974 223.11111111111111 435.47545365703974 227.55555555555557 435.47545365703985 229.7777777777778 L 435.4754536570398 232" fill="none" stroke="#333333" stroke-width="2" stroke-linecap="round" stroke-linejoin="round" marker-end="url(#arrowhead)"/>
<rect x="347.3394148533488" y="148.66666666666666" width="106" height="20" rx="3" fill="rgba(232,232,232,0.8)"/>
<text class="edge-label" x="400.3394148533488" y="158.66666666666666" text-anchor="middle" dominant-baseline="central" fill="#333333">HAS_CHILD_OU</text>
<path d="M 370.5424083908392 462 L 370.5424083908392 542" fill="none" stroke="#333333" stroke-width="2" stroke-linecap="round" stroke-linejoin="round" marker-end="url(#arrowhead)"/>
<rect x="321.5424083908392" y="492" width="98" height="20" rx="3" fill="rgba(232,232,232,0.8)"/>
<text class="edge-label" x="370.5424083908392" y="502" text-anchor="middle" dominant-baseline="central" fill="#333333">OWNS_DOMAIN</text>
<path d="M 79.0289421081543 462 L 79.0289421081543 542" fill="none" stroke="#333333" stroke-width="2" stroke-linecap="round" stroke-linejoin="round" marker-end="url(#arrowhead)"/>
<rect x="30.028942108154297" y="492" width="98" height="20" rx="3" fill="rgba(232,232,232,0.8)"/>
<text class="edge-label" x="79.0289421081543" y="502" text-anchor="middle" dominant-baseline="central" fill="#333333">OWNS_DOMAIN</text>
<path d="M 989.6066579340298 462 L 989.6066579340298 542" fill="none" stroke="#333333" stroke-width="2" stroke-linecap="round" stroke-linejoin="round" marker-end="url(#arrowhead)"/>
<rect x="940.6066579340298" y="492" width="98" height="20" rx="3" fill="rgba(232,232,232,0.8)"/>
<text class="edge-label" x="989.6066579340298" y="502" text-anchor="middle" dominant-baseline="central" fill="#333333">OWNS_DOMAIN</text>
<path d="M 709.2085752048309 736 L 698.1249769587938 738.2222222222222 C 687.0413787127567 740.4444444444445 664.8741822206822 744.888888888889 649.9113245885321 749.3333333333334 C 634.9484669563819 753.7777777777778 627.1899481841559 758.2222222222222 623.3106887980429 762.6666666666666 C 619.4314294119299 767.111111111111 619.4314294119299 771.5555555555555 619.4314294119299 776 C 619.4314294119299 780.4444444444445 619.4314294119299 784.888888888889 619.4314294119299 789.3333333333334 C 619.4314294119299 793.7777777777778 619.4314294119299 798.2222222222222 619.4314294119299 802.6666666666666 C 619.4314294119299 807.111111111111 619.4314294119299 811.5555555555555 619.4314294119299 813.7777777777777 L 619.4314294119299 816" fill="none" stroke="#333333" stroke-width="2" stroke-linecap="round" stroke-linejoin="round" marker-end="url(#arrowhead)"/>
<rect x="622.9577804667196" y="732.6666666666667" width="106" height="20" rx="3" fill="rgba(232,232,232,0.8)"/>
<text class="edge-label" x="675.9577804667196" y="742.6666666666667" text-anchor="middle" dominant-baseline="central" fill="#333333">SSO provider</text>
<path d="M 709.2085752048309 736 L 723.3611717106746 738.4722222222222 C 737.5137682165182 740.9444444444445 765.8189612282054 745.888888888889 784.9249665110942 750.8333333333334 C 804.0309717939831 755.7777777777778 813.9377893480737 760.7222222222222 818.8911981251189 765.6666666666666 C 823.8446069021642 770.611111111111 823.8446069021642 775.5555555555555 823.8446069021642 780.5 C 823.8446069021642 785.4444444444445 823.8446069021642 790.388888888889 823.8446069021642 795.3333333333334 C 823.8446069021642 800.2777777777778 823.8446069021642 805.2222222222222 823.8446069021642 810.1666666666666 C 823.8446069021642 815.111111111111 823.8446069021642 820.0555555555555 823.8446069021642 822.5277777777778 L 823.8446069021642 825" fill="none" stroke="#333333" stroke-width="2" stroke-linecap="round" stroke-linejoin="round" marker-end="url(#arrowhead)"/>
<rect x="722.6663647223617" y="733.4166666666667" width="58" height="20" rx="3" fill="rgba(232,232,232,0.8)"/>
<text class="edge-label" x="751.6663647223617" y="743.4166666666667" text-anchor="middle" dominant-baseline="central" fill="#333333">member</text>
<path d="M 709.2085752048309 736 L 751.3947706222897 738.4722222222222 C 793.5809660397482 740.9444444444445 877.9533568746656 745.888888888889 934.9047206882348 750.8333333333334 C 991.856084501804 755.7777777777778 1021.3864212940252 760.7222222222222 1036.1515896901358 765.6666666666666 C 1050.9167580862463 770.611111111111 1050.9167580862463 775.5555555555555 1050.9167580862465 780.5 C 1050.9167580862463 785.4444444444445 1050.9167580862463 790.388888888889 1050.9167580862465 795.3333333333334 C 1050.9167580862463 800.2777777777778 1050.9167580862463 805.2222222222222 1050.9167580862465 810.1666666666666 C 1050.9167580862463 815.111111111111 1050.9167580862463 820.0555555555555 1050.9167580862465 822.5277777777778 L 1050.9167580862463 825" fill="none" stroke="#333333" stroke-width="2" stroke-linecap="round" stroke-linejoin="round" marker-end="url(#arrowhead)"/>
<rect x="806.767161457207" y="733.4166666666667" width="58" height="20" rx="3" fill="rgba(232,232,232,0.8)"/>
<text class="edge-label" x="835.767161457207" y="743.4166666666667" text-anchor="middle" dominant-baseline="central" fill="#333333">member</text>
<path d="M 193.17938975041068 736 L 183.6368303340959 738.2222222222222 C 174.09427091778113 740.4444444444445 155.00915208515156 744.888888888889 142.1266968731266 749.3333333333334 C 129.24424166110165 753.7777777777778 122.56445006968129 758.2222222222222 119.2245542739711 762.6666666666666 C 115.88465847826092 767.111111111111 115.88465847826092 771.5555555555555 115.88465847826092 776 C 115.88465847826092 780.4444444444445 115.88465847826092 784.888888888889 115.88465847826092 789.3333333333334 C 115.88465847826092 793.7777777777778 115.88465847826092 798.2222222222222 115.88465847826092 802.6666666666666 C 115.88465847826092 807.111111111111 115.88465847826092 811.5555555555555 115.88465847826092 813.7777777777777 L 115.88465847826092 816" fill="none" stroke="#333333" stroke-width="2" stroke-linecap="round" stroke-linejoin="round" marker-end="url(#arrowhead)"/>
<rect x="111.55171150146634" y="732.6666666666667" width="106" height="20" rx="3" fill="rgba(232,232,232,0.8)"/>
<text class="edge-label" x="164.55171150146634" y="742.6666666666667" text-anchor="middle" dominant-baseline="central" fill="#333333">SSO provider</text>
<path d="M 193.17938975041068 736 L 209.4276481599784 738.4722222222222 C 225.67590656954613 740.9444444444445 258.1724233886816 745.888888888889 280.10757224159806 750.8333333333334 C 302.0427210945145 755.7777777777778 313.4165019812119 760.7222222222222 319.10339242456064 765.6666666666666 C 324.79028286790935 770.611111111111 324.79028286790935 775.5555555555555 324.79028286790935 780.5 C 324.79028286790935 785.4444444444445 324.79028286790935 790.388888888889 324.79028286790935 795.3333333333334 C 324.79028286790935 800.2777777777778 324.79028286790935 805.2222222222222 324.79028286790935 810.1666666666666 C 324.79028286790935 815.111111111111 324.79028286790935 820.0555555555555 324.79028286790935 822.5277777777778 L 324.79028286790935 825" fill="none" stroke="#333333" stroke-width="2" stroke-linecap="round" stroke-linejoin="round" marker-end="url(#arrowhead)"/>
<rect x="212.92416497911393" y="733.4166666666667" width="58" height="20" rx="3" fill="rgba(232,232,232,0.8)"/>
<text class="edge-label" x="241.92416497911393" y="743.4166666666667" text-anchor="middle" dominant-baseline="central" fill="#333333">member</text>
<path d="M 1299.832925235265 736 L 1326.4556712101885 738.4722222222222 C 1353.078417185112 740.9444444444445 1406.3239091349587 745.888888888889 1442.2646162011054 750.8333333333334 C 1478.2053232672522 755.7777777777778 1496.8412454496984 760.7222222222222 1506.1592065409216 765.6666666666666 C 1515.4771676321445 770.611111111111 1515.4771676321445 775.5555555555555 1515.477167632145 780.5 C 1515.4771676321445 785.4444444444445 1515.4771676321445 790.388888888889 1515.477167632145 795.3333333333334 C 1515.4771676321445 800.2777777777778 1515.4771676321445 805.2222222222222 1515.477167632145 810.1666666666666 C 1515.4771676321445 815.111111111111 1515.4771676321445 820.0555555555555 1515.477167632145 822.5277777777778 L 1515.4771676321448 825" fill="none" stroke="#333333" stroke-width="2" stroke-linecap="round" stroke-linejoin="round" marker-end="url(#arrowhead)"/>
<rect x="1350.7011631600353" y="733.4166666666667" width="58" height="20" rx="3" fill="rgba(232,232,232,0.8)"/>
<text class="edge-label" x="1379.7011631600353" y="743.4166666666667" text-anchor="middle" dominant-baseline="central" fill="#333333">member</text>
<path d="M 1299.832925235265 736 L 1299.0843583741182 738.4722222222222 C 1298.3357915129716 740.9444444444445 1296.8386577906783 745.888888888889 1295.8280925281304 750.8333333333334 C 1294.8175272655822 755.7777777777778 1294.2935304627795 760.7222222222222 1294.0315320613781 765.6666666666666 C 1293.7695336599768 770.611111111111 1293.7695336599768 775.5555555555555 1293.769533659977 780.5 C 1293.7695336599768 785.4444444444445 1293.7695336599768 790.388888888889 1293.769533659977 795.3333333333334 C 1293.7695336599768 800.2777777777778 1293.7695336599768 805.2222222222222 1293.769533659977 810.1666666666666 C 1293.7695336599768 815.111111111111 1293.7695336599768 820.0555555555555 1293.769533659977 822.5277777777778 L 1293.7695336599768 825" fill="none" stroke="#333333" stroke-width="2" stroke-linecap="round" stroke-linejoin="round" marker-end="url(#arrowhead)"/>
<rect x="1268.5872246518252" y="733.4166666666667" width="58" height="20" rx="3" fill="rgba(232,232,232,0.8)"/>
<text class="edge-label" x="1297.5872246518252" y="743.4166666666667" text-anchor="middle" dominant-baseline="central" fill="#333333">member</text>
<g transform="translate(1293.7695336599768, 840)">
  <rect x="-85.67617797851563" y="-15" width="171.35235595703125" height="30" fill="#ECECFF" stroke="#9370DB" stroke-width="2"/>
  <text class="node-text" text-anchor="middle" dominant-baseline="central" fill="#333333">Identity: eve@smallco.io</text>
</g>
<g transform="translate(989.6066579340298, 557)">
  <rect x="-42.158138275146484" y="-15" width="84.31627655029297" height="30" fill="#ECECFF" stroke="#9370DB" stroke-width="2"/>
  <text class="node-text" text-anchor="middle" dominant-baseline="central" fill="#333333">smallco.io</text>
</g>
<g transform="translate(1299.832925235265, 694)">
  <rect x="-76.67366027832031" y="-42" width="153.34732055664063" height="84" fill="#ECECFF" stroke="#9370DB" stroke-width="2"/>
  <text class="node-text" text-anchor="middle" fill="#333333">
    <tspan x="0" dy="-1.7999999999999998em" dominant-baseline="central" font-weight="bold">Ory Organization</tspan>
    <tspan x="0" dy="1.2em" dominant-baseline="central">id = ory-org-ccc</tspan>
    <tspan x="0" dy="1.2em" dominant-baseline="central">label = Smallco</tspan>
    <tspan x="0" dy="1.2em" dominant-baseline="central">domains = smallco.io</tspan>
  </text>
</g>
<g transform="translate(709.2085752048309, 694)">
  <rect x="-77.81879425048828" y="-42" width="155.63758850097656" height="84" fill="#ECECFF" stroke="#9370DB" stroke-width="2"/>
  <text class="node-text" text-anchor="middle" fill="#333333">
    <tspan x="0" dy="-1.7999999999999998em" dominant-baseline="central" font-weight="bold">Ory Organization</tspan>
    <tspan x="0" dy="1.2em" dominant-baseline="central">id = ory-org-aaa</tspan>
    <tspan x="0" dy="1.2em" dominant-baseline="central">label = Acme US</tspan>
    <tspan x="0" dy="1.2em" dominant-baseline="central">domains = acme.com</tspan>
  </text>
</g>
<g transform="translate(1050.9167580862463, 840)">
  <rect x="-87.17659759521484" y="-15" width="174.3531951904297" height="30" fill="#ECECFF" stroke="#9370DB" stroke-width="2"/>
  <text class="node-text" text-anchor="middle" dominant-baseline="central" fill="#333333">Identity: bob@acme.com</text>
</g>
<g transform="translate(79.0289421081543, 557)">
  <rect x="-37.9710578918457" y="-15" width="75.9421157836914" height="30" fill="#ECECFF" stroke="#9370DB" stroke-width="2"/>
  <text class="node-text" text-anchor="middle" dominant-baseline="central" fill="#333333">acme.eu</text>
</g>
<g transform="translate(193.17938975041068, 694)">
  <rect x="-72.48657608032227" y="-42" width="144.97315216064453" height="84" fill="#ECECFF" stroke="#9370DB" stroke-width="2"/>
  <text class="node-text" text-anchor="middle" fill="#333333">
    <tspan x="0" dy="-1.7999999999999998em" dominant-baseline="central" font-weight="bold">Ory Organization</tspan>
    <tspan x="0" dy="1.2em" dominant-baseline="central">id = ory-org-bbb</tspan>
    <tspan x="0" dy="1.2em" dominant-baseline="central">label = Acme EU</tspan>
    <tspan x="0" dy="1.2em" dominant-baseline="central">domains = acme.eu</tspan>
  </text>
</g>
<g transform="translate(989.6066579340298, 429)">
  <rect x="-63.0289421081543" y="-33" width="126.0578842163086" height="66" fill="#ECECFF" stroke="#9370DB" stroke-width="2"/>
  <text class="node-text" text-anchor="middle" fill="#333333">
    <tspan x="0" dy="-1.2em" dominant-baseline="central" font-weight="bold">Smallco LLC</tspan>
    <tspan x="0" dy="1.2em" dominant-baseline="central">id = le-003</tspan>
    <tspan x="0" dy="1.2em" dominant-baseline="central">entityType = LLC</tspan>
  </text>
</g>
<g transform="translate(823.8446069021642, 840)">
  <rect x="-89.89555358886719" y="-15" width="179.79110717773438" height="30" fill="#ECECFF" stroke="#9370DB" stroke-width="2"/>
  <text class="node-text" text-anchor="middle" dominant-baseline="central" fill="#333333">Identity: alice@acme.com</text>
</g>
<g transform="translate(619.4314294119299, 840)">
  <rect x="-64.51762390136719" y="-24" width="129.03524780273438" height="48" fill="#ECECFF" stroke="#9370DB" stroke-width="2"/>
  <text class="node-text" text-anchor="middle" fill="#333333">
    <tspan x="0" dy="-0.6em" dominant-baseline="central" font-weight="bold">SAML Connection</tspan>
    <tspan x="0" dy="1.2em" dominant-baseline="central">provider = Okta</tspan>
  </text>
</g>
<g transform="translate(592.5209030786154, 959)">
  <rect x="-37.38674736022949" y="-15" width="74.77349472045898" height="30" fill="#f5f5f5" stroke="#999" stroke-width="2"/>
  <text class="node-text" text-anchor="middle" dominant-baseline="central" fill="#333333">Okta IdP</text>
</g>
<g transform="translate(92.84389295510857, 959)">
  <rect x="-39.776845932006836" y="-15" width="79.55369186401367" height="30" fill="#f5f5f5" stroke="#999" stroke-width="2"/>
  <text class="node-text" text-anchor="middle" dominant-baseline="central" fill="#333333">Azure AD</text>
</g>
<g transform="translate(370.5424083908392, 557)">
  <rect x="-43.30327224731445" y="-15" width="86.6065444946289" height="30" fill="#ECECFF" stroke="#9370DB" stroke-width="2"/>
  <text class="node-text" text-anchor="middle" dominant-baseline="central" fill="#333333">acme.com</text>
</g>
<g transform="translate(1146.4740877816953, 274)">
  <rect x="-85.7730712890625" y="-42" width="171.546142578125" height="84" fill="#ECECFF" stroke="#9370DB" stroke-width="2"/>
  <text class="node-text" text-anchor="middle" fill="#333333">
    <tspan x="0" dy="-1.7999999999999998em" dominant-baseline="central" font-weight="bold">Root OU: Smallco</tspan>
    <tspan x="0" dy="1.2em" dominant-baseline="central">id = ou-root-999</tspan>
    <tspan x="0" dy="1.2em" dominant-baseline="central">geo = US</tspan>
    <tspan x="0" dy="1.2em" dominant-baseline="central">ory_org_id = ory-org-ccc</tspan>
  </text>
</g>
<g transform="translate(379.67115673353044, 110)">
  <rect x="-86.9094009399414" y="-42" width="173.8188018798828" height="84" fill="#ECECFF" stroke="#9370DB" stroke-width="2"/>
  <text class="node-text" text-anchor="middle" fill="#333333">
    <tspan x="0" dy="-1.7999999999999998em" dominant-baseline="central" font-weight="bold">Root OU: Acme US</tspan>
    <tspan x="0" dy="1.2em" dominant-baseline="central">id = ou-root-456</tspan>
    <tspan x="0" dy="1.2em" dominant-baseline="central">geo = US</tspan>
    <tspan x="0" dy="1.2em" dominant-baseline="central">ory_org_id = ory-org-aaa</tspan>
  </text>
</g>
<g transform="translate(221.67217759502807, 274)">
  <rect x="-87.30579376220703" y="-42" width="174.61158752441406" height="84" fill="#ECECFF" stroke="#9370DB" stroke-width="2"/>
  <text class="node-text" text-anchor="middle" fill="#333333">
    <tspan x="0" dy="-1.7999999999999998em" dominant-baseline="central" font-weight="bold">Child OU: Acme EU</tspan>
    <tspan x="0" dy="1.2em" dominant-baseline="central">id = ou-child-789</tspan>
    <tspan x="0" dy="1.2em" dominant-baseline="central">geo = EU</tspan>
    <tspan x="0" dy="1.2em" dominant-baseline="central">ory_org_id = ory-org-bbb</tspan>
  </text>
</g>
<g transform="translate(115.88465847826092, 840)">
  <rect x="-73.69337463378906" y="-24" width="147.38674926757813" height="48" fill="#ECECFF" stroke="#9370DB" stroke-width="2"/>
  <text class="node-text" text-anchor="middle" fill="#333333">
    <tspan x="0" dy="-0.6em" dominant-baseline="central" font-weight="bold">OIDC Connection</tspan>
    <tspan x="0" dy="1.2em" dominant-baseline="central">provider = Azure AD</tspan>
  </text>
</g>
<g transform="translate(435.4754536570398, 274)">
  <rect x="-76.49748229980469" y="-42" width="152.99496459960938" height="84" fill="#fff3cd" stroke="#996" stroke-width="2"/>
  <text class="node-text" text-anchor="middle" fill="#333333">
    <tspan x="0" dy="-1.7999999999999998em" dominant-baseline="central" font-weight="bold">Child OU: Acme APAC</tspan>
    <tspan x="0" dy="1.2em" dominant-baseline="central">id = ou-child-012</tspan>
    <tspan x="0" dy="1.2em" dominant-baseline="central">geo = US</tspan>
    <tspan x="0" dy="1.2em" dominant-baseline="central">ory_org_id = null</tspan>
  </text>
</g>
<g transform="translate(370.5424083908392, 429)">
  <rect x="-95.85906982421875" y="-33" width="191.7181396484375" height="66" fill="#ECECFF" stroke="#9370DB" stroke-width="2"/>
  <text class="node-text" text-anchor="middle" fill="#333333">
    <tspan x="0" dy="-1.2em" dominant-baseline="central" font-weight="bold">Acme Holdings Inc.</tspan>
    <tspan x="0" dy="1.2em" dominant-baseline="central">id = le-001</tspan>
    <tspan x="0" dy="1.2em" dominant-baseline="central">entityType = CORPORATION</tspan>
  </text>
</g>
<g transform="translate(324.79028286790935, 840)">
  <rect x="-85.21224975585938" y="-15" width="170.42449951171875" height="30" fill="#ECECFF" stroke="#9370DB" stroke-width="2"/>
  <text class="node-text" text-anchor="middle" dominant-baseline="central" fill="#333333">Identity: carol@acme.eu</text>
</g>
<g transform="translate(1515.4771676321448, 840)">
  <rect x="-86.03145599365234" y="-15" width="172.0629119873047" height="30" fill="#ECECFF" stroke="#9370DB" stroke-width="2"/>
  <text class="node-text" text-anchor="middle" dominant-baseline="central" fill="#333333">Identity: dan@smallco.io</text>
</g>
<g transform="translate(79.0289421081543, 429)">
  <rect x="-63.0289421081543" y="-33" width="126.0578842163086" height="66" fill="#ECECFF" stroke="#9370DB" stroke-width="2"/>
  <text class="node-text" text-anchor="middle" fill="#333333">
    <tspan x="0" dy="-1.2em" dominant-baseline="central" font-weight="bold">Acme EU GmbH</tspan>
    <tspan x="0" dy="1.2em" dominant-baseline="central">id = le-002</tspan>
    <tspan x="0" dy="1.2em" dominant-baseline="central">entityType = LLC</tspan>
  </text>
</g>
</g>
</svg>
